<?xml version="1.0" encoding="UTF-8"?>
<!DOCTYPE svg PUBLIC "-//W3C//DTD SVG 1.1//EN" "http://www.w3.org/Graphics/SVG/1.1/DTD/svg11.dtd">
<!-- Creator: CorelDRAW 2020 (64-Bit) -->
<svg xmlns="http://www.w3.org/2000/svg" xml:space="preserve" width="297mm" height="210mm" version="1.1" style="shape-rendering:geometricPrecision; text-rendering:geometricPrecision; image-rendering:optimizeQuality; fill-rule:evenodd; clip-rule:evenodd"
viewBox="0 0 29700 21000"
 xmlns:xlink="http://www.w3.org/1999/xlink"
 xmlns:xodm="http://www.corel.com/coreldraw/odm/2003">
 <defs>
  <style type="text/css">
   <![CDATA[
    .fil3 {fill:#FEFEFE}
    .fil2 {fill:#C62829}
    .fil0 {fill:#1C1B17}
    .fil1 {fill:#FEFEFE;fill-rule:nonzero}
    .fil4 {fill:#1C1B17;fill-rule:nonzero}
   ]]>
  </style>
 </defs>
 <g id="Layer_x0020_1">
  <metadata id="CorelCorpID_0Corel-Layer"/>
  <g id="_1796020774976">
   <g>
    <path class="fil0" d="M9908.46 17451.13l88.73 0 0 966.92 -88.73 0 0 -966.92zm5839.63 0l88.7 0 0 966.92 -88.7 0 0 -966.92zm-9228.9 676.4c0,-95.2 1.88,-147.64 80.54,-156.99l29.95 -3.77c13.11,-11.22 11.23,-39.63 -1.88,-47.13 -61.77,3.76 -125.45,5.01 -198.49,5.01 -110.5,0 -213.51,-1.25 -267.8,-5.01 -13.13,5.63 -15,39.65 0,47.13l82.4 9.38c116.1,13.11 121.72,24.33 121.72,181.34l0 74.89c0,59.93 -9.36,93.66 -18.74,106.75 -20.59,31.54 -89.88,55.88 -205.98,55.88 -376.41,0 -561.82,-282.48 -561.82,-642.04 0,-281.21 159.18,-539.63 522.49,-539.63 191.01,0 331.48,63.65 383.9,265.9 11.25,11.25 44.96,9.38 50.56,-5.6 -16.85,-112.37 -28.09,-209.75 -28.09,-271.55 -22.47,3.73 -80.51,-9.37 -116.1,-16.86 -31.84,-7.48 -131.1,-28.09 -237.85,-28.09 -282.77,0 -468.17,88.01 -593.64,219.12 -116.11,123.58 -168.54,284.65 -168.54,444.13 0,165.12 59.92,312.76 172.29,425.11 144.19,145.76 348.32,207.57 571.18,207.57 101.13,0 235.95,-22.48 335.22,-48.68 35.59,-9.38 69.3,-16.87 91.76,-16.87 7.48,-5.62 7.48,-16.85 1.87,-22.46 -33.7,-12.81 -44.95,-57.77 -44.95,-132.68l0 -104.85zm638.6 -468.49c-220.98,0 -398.87,168.55 -398.87,404.5 0,234.09 168.54,385.78 383.89,385.78 234.11,0 395.16,-168.56 395.16,-402.63 0,-230.35 -170.43,-387.65 -380.18,-387.65zm219.13 417.61c0,144.2 -50.58,316.49 -215.38,316.49 -164.8,0 -241.57,-183.54 -241.57,-353.95 0,-206.01 91.76,-323.97 215.35,-323.97 177.9,0 241.6,202.25 241.6,361.43zm529.96 -749.08c0,-82.42 3.76,-176.05 5.63,-232.23 -3.76,-7.5 -11.25,-11.23 -18.73,-11.23 -67.42,35.59 -155.45,63.66 -202.25,78.65 -9.38,5.62 -9.38,31.83 0,37.45l18.71 11.24c56.2,33.7 58.06,44.95 58.06,155.45l0 845.83c0,134.84 -1.86,153.57 -71.15,162.92l-43.08 5.63c-13.12,9.37 -9.38,41.5 3.75,47.12 56.17,-3.72 112.35,-4.98 179.76,-4.98 65.55,0 119.85,1.26 181.65,4.98 13.13,-5.62 16.87,-37.75 3.78,-47.12l-44.96 -5.63c-67.41,-9.35 -71.17,-28.08 -71.17,-162.92l0 -885.16zm953.22 0c0,-82.42 3.73,-176.05 5.61,-232.23 -3.73,-7.5 -11.22,-11.23 -18.72,-11.23 -67.42,35.59 -155.43,63.66 -202.25,78.65 -9.35,5.62 -9.35,31.83 0,37.45l18.73 11.24c56.17,33.7 58.04,44.95 58.04,155.45l0 282.77c0,14.97 -1.87,26.22 -11.23,26.22 -20.59,-7.51 -61.8,-16.85 -125.47,-16.85 -254.69,0 -453.2,168.55 -453.2,430.71 0,196.66 138.59,359.57 346.45,359.57 89.91,0 153.57,-29.97 235.96,-86.15l7.49 0c3.76,7.5 3.76,29.97 3.76,58.06l0 31.84c0,9.36 9.35,14.96 20.59,14.96 52.43,-20.58 168.54,-48.68 247.19,-59.92 16.87,-9.35 14.99,-56.18 1.87,-59.92 -28.06,9.36 -59.92,18.74 -80.52,18.74 -52.42,0 -54.3,-69.3 -54.3,-217.25l0 -822.11zm-138.59 910.13c0,29.97 -1.87,58.06 -13.09,69.3 -29.98,29.95 -93.65,52.43 -144.2,52.43 -183.54,0 -279.05,-161.06 -279.05,-331.47 0,-162.94 88.03,-310.87 258.45,-310.87 73.03,0 129.21,39.33 157.29,78.65 13.11,18.73 20.6,35.57 20.6,73.04l0 368.92zm2988.85 -131.08c0,-177.92 -116.1,-286.55 -234.08,-359.57l-149.83 -93.63c-69.28,-43.08 -159.18,-121.73 -159.18,-230.35 0,-86.17 39.33,-207.86 222.86,-207.86 179.78,0 230.34,121.69 254.71,211.6 9.35,11.24 39.3,5.62 46.8,-5.61 0,-78.65 -16.87,-183.53 -33.71,-228.48 -14.98,0 -41.2,-3.74 -65.55,-11.25 -48.69,-13.09 -116.1,-24.33 -174.17,-24.33 -243.44,0 -382.02,144.18 -382.02,322.1 0,153.56 108.61,260.31 202.25,322.12l177.9 116.11c136.73,88.01 153.57,179.77 153.57,262.19 0,112.34 -76.79,215.35 -234.09,215.35 -217.23,0 -294.01,-183.51 -322.11,-279.04 -7.49,-11.23 -35.58,-7.48 -44.95,5.63 3.75,88 28.11,220.98 50.57,262.17 35.59,20.62 134.85,69.3 292.15,69.3 243.45,0 398.88,-140.47 398.88,-346.45zm258.44 106.11c0,134.84 -1.88,153.57 -71.17,162.92l-39.32 5.63c-13.12,9.37 -9.36,41.5 3.75,47.12 52.43,-3.72 108.61,-4.98 176.02,-4.98 65.55,0 119.86,1.26 176.05,4.98 13.1,-5.62 16.84,-37.75 3.73,-47.12l-39.31 -5.63c-67.43,-9.35 -71.17,-28.08 -71.17,-162.92l0 -337.1c0,-76.77 3.74,-166.66 7.5,-232.21 -1.87,-7.49 -9.38,-11.24 -18.73,-11.24 -43.09,28.1 -149.83,76.79 -192.9,91.76 -9.35,5.62 -9.35,26.24 -1.88,33.71l16.86 11.25c50.57,33.7 50.57,43.08 50.57,116.09l0 327.74zm61.79 -958.22c-56.17,0 -101.11,39.33 -101.11,101.14 0,50.55 37.44,93.64 95.51,93.64 52.43,0 99.24,-29.97 99.24,-97.39 0,-52.43 -37.46,-97.39 -93.64,-97.39zm539.34 73.06c0,-82.42 3.77,-176.05 5.64,-232.23 -3.77,-7.5 -11.25,-11.23 -18.74,-11.23 -67.42,35.59 -155.43,63.66 -202.24,78.65 -9.36,5.62 -9.36,31.83 0,37.45l18.72 11.24c56.18,33.7 58.05,44.95 58.05,155.45l0 845.83c0,134.84 -1.87,153.57 -71.16,162.92l-43.06 5.63c-13.13,9.37 -9.37,41.5 3.73,47.12 56.18,-3.72 112.37,-4.98 179.79,-4.98 65.54,0 119.85,1.26 181.64,4.98 13.12,-5.62 16.87,-37.75 3.76,-47.12l-44.96 -5.63c-67.4,-9.35 -71.17,-28.08 -71.17,-162.92l0 -885.16zm470.07 923.26c28.08,69.27 56.19,142.31 71.17,194.73 5.62,5.63 14.97,7.51 24.33,7.51 7.49,0 15,-1.88 18.74,-7.51 24.34,-63.66 43.06,-106.74 61.8,-153.56 29.96,-76.76 146.06,-348 172.3,-398.27 54.28,-104.86 71.15,-153.56 136.69,-162.91l28.09 -3.75c11.24,-11.24 9.36,-39.62 -3.75,-47.14 -52.42,3.77 -84.26,5 -131.1,5 -35.58,0 -82.39,-1.23 -140.43,-5 -13.11,7.52 -15,34.03 -3.75,47.14l43.08 5.62c22.47,3.76 33.71,11.22 33.71,28.09 0,11.24 -7.49,50.56 -33.71,116.12 -18.74,48.37 -82.41,211.3 -106.75,274.97 -14.99,39.01 -28.1,65.22 -35.59,70.85 -5.62,-5.63 -13.11,-22.47 -29.95,-59.64 -43.09,-97.36 -97.39,-228.44 -140.47,-357.35 -18.72,-56.19 -16.85,-65.56 41.21,-74.91l22.46 -3.75c13.12,-9.36 11.25,-39.62 -1.87,-47.14 -63.65,3.77 -101.11,5 -151.69,5 -63.67,0 -129.21,-1.23 -176.02,-5 -15,5.63 -16.87,32.17 -5.62,47.14l37.43 5.62c67.45,9.35 84.29,69.28 112.38,138.58l157.31 379.56zm1076.82 -307.15c78.64,0 104.85,-1.87 110.5,-13.11 3.73,-7.49 7.47,-22.46 7.47,-48.68 0,-112.37 -104.86,-222.85 -265.91,-222.85 -224.73,0 -376.43,192.88 -376.43,423.23 0,82.39 22.49,170.4 78.66,243.44 54.31,71.17 149.81,123.61 271.53,123.61 97.39,0 232.22,-46.82 294.03,-174.16 -1.88,-16.86 -15,-28.08 -33.71,-22.49 -58.06,73.04 -110.49,91.79 -172.31,91.79 -200.38,0 -310.86,-161.07 -310.86,-350.22 0,-46.8 1.87,-50.56 50.55,-50.56l346.48 0zm-363.32 -56.17c-13.1,0 -13.1,-5.62 -13.1,-9.37 1.88,-61.8 97.39,-162.92 207.86,-162.92 108.63,0 144.21,65.54 144.21,117.96 0,24.35 -5.62,31.84 -11.24,35.6 -14.99,11.24 -56.18,18.73 -194.76,18.73l-132.97 0zm698.54 325.22c0,134.84 -1.87,151.7 -71.16,162.92l-35.59 5.63c-13.12,9.37 -9.36,41.5 3.73,47.12 48.7,-3.72 104.87,-4.98 172.32,-4.98 65.52,0 119.85,1.26 207.86,4.98 13.11,-5.62 16.86,-37.75 3.75,-47.12l-67.43 -5.63c-71.17,-5.62 -74.91,-28.08 -74.91,-162.92l0 -254.39c0,-63.65 5.62,-117.98 24.36,-143.87 14.97,-20.62 37.44,-37.46 67.4,-37.46 26.23,0 54.31,11.25 82.41,29.96 13.1,7.5 22.46,13.1 41.21,13.1 29.96,0 80.51,-24.33 80.51,-86.14 0,-44.93 -37.45,-74.89 -84.26,-74.89 -69.29,0 -140.46,58.05 -206.01,112.35 -3.75,-1.87 -5.62,-7.49 -5.62,-16.84l0 -108.63c0,-7.47 -5.62,-11.25 -14.97,-13.12 -46.82,28.11 -146.08,76.79 -189.16,91.77 -9.35,5.63 -9.35,26.22 -1.87,33.72l16.86 11.23c50.57,33.72 50.57,43.07 50.57,115.79l0 327.42zm2550.63 -70.53c0,196 -3.74,218.48 -112.35,233.45l-43.08 5.63c-11.25,11.86 -7.49,41.82 3.75,47.44 88.01,-4.04 155.43,-5.94 234.07,-5.94 65.57,0.32 185.42,15.32 305.26,15.32 144.21,0 297.77,-24.36 419.5,-89.91 213.5,-116.11 327.72,-320.23 327.72,-558.06 0,-247.2 -127.34,-460.69 -380.15,-552.46 -121.75,-44.95 -254.69,-56.2 -412.03,-56.2 -159.15,0 -310.85,5.63 -470.04,15 -18.71,7.49 -16.84,37.46 -1.87,46.8l41.21 5.65c78.64,11.22 88.01,50.55 88.01,181.62l0 711.66zm153.56 -734.13c0,-84.26 3.75,-131.08 18.73,-142.31 14.98,-11.25 74.9,-26.22 185.4,-26.22 490.66,0 589.92,348.33 589.92,554.31 0,348.35 -162.94,586.19 -526.24,586.19 -117.98,0 -189.15,-18.74 -230.35,-76.79 -31.82,-44.95 -37.46,-104.88 -37.46,-204.14l0 -691.04zm1228.52 804.66c0,134.84 -1.87,153.57 -71.16,162.92l-39.33 5.63c-13.13,9.37 -9.37,41.5 3.74,47.12 52.43,-3.72 108.63,-4.98 176.05,-4.98 65.52,0 119.85,1.26 176.02,4.98 13.12,-5.62 16.84,-37.75 3.75,-47.12l-39.33 -5.63c-67.43,-9.35 -71.17,-28.08 -71.17,-162.92l0 -337.1c0,-76.77 3.74,-166.66 7.5,-232.21 -1.87,-7.49 -9.37,-11.24 -18.72,-11.24 -43.08,28.1 -149.81,76.79 -192.91,91.76 -9.35,5.62 -9.35,26.24 -1.86,33.71l16.86 11.25c50.56,33.7 50.56,43.08 50.56,116.09l0 327.74zm61.81 -958.22c-56.2,0 -101.14,39.33 -101.14,101.14 0,50.55 37.46,93.64 95.51,93.64 52.43,0 99.26,-29.97 99.26,-97.39 0,-52.43 -37.46,-97.39 -93.63,-97.39zm456.93 861.46c-119.86,43.07 -155.42,86.15 -155.42,159.19 0,52.44 22.46,99.23 58.05,131.07 31.82,28.11 76.77,43.09 131.1,43.09 52.42,0 93.63,-24.35 134.81,-46.82 37.46,-20.6 59.92,-37.44 73.04,-37.44 11.24,0 22.47,14.98 29.96,26.2 31.84,41.21 76.8,58.06 121.73,58.06 91.77,0 157.32,-73.04 157.32,-82.39 0,-13.12 -5.62,-24.35 -13.12,-24.35 -5.62,0 -14.99,7.48 -24.33,13.1 -11.24,5.62 -28.1,11.25 -46.84,11.25 -73.03,0 -89.88,-76.8 -86.14,-162.94l11.24 -325.85c5.62,-140.46 -59.93,-219.1 -194.75,-219.1 -136.72,0 -348.35,132.97 -348.35,230.33 0,16.85 9.38,26.23 26.22,26.23 28.11,0 78.66,-13.12 106.75,-35.58 14.99,-11.24 16.86,-33.71 18.73,-63.68 3.73,-58.05 67.43,-84.26 119.86,-84.26 116.12,0 138.58,93.64 136.71,162.92l-1.87 86.15c0,28.08 -3.75,44.95 -31.84,54.3l-222.86 80.52zm-11.23 136.7c0,-73.01 54.31,-101.12 164.79,-138.58 33.73,-11.22 65.55,-18.72 76.78,-18.72 11.24,0 18.74,3.74 18.74,24.36l-3.75 110.48c-1.87,39.33 -1.87,65.55 -24.34,88.01 -18.75,18.73 -76.79,46.84 -114.25,46.84 -95.49,0 -117.97,-80.52 -117.97,-112.39zm1722.89 -39.94c0,134.84 -1.86,151.7 -71.15,162.92l-33.71 5.63c-13.11,9.37 -9.37,41.5 3.74,47.12 52.44,-3.72 103.01,-4.98 170.42,-4.98 65.56,0 119.86,1.26 181.66,4.98 13.12,-5.62 16.85,-37.75 3.75,-47.12l-44.96 -5.63c-67.41,-9.35 -71.16,-28.08 -71.16,-162.92l0 -321.8c0,-128.92 -73.02,-231.89 -222.85,-231.89 -88.01,0 -179.78,43.06 -254.7,95.51 -16.84,11.24 -29.96,18.71 -46.8,14.97 -52.44,-76.77 -104.88,-110.48 -198.51,-110.48 -89.88,0 -177.92,44.93 -249.09,95.51 -13.1,0 -20.59,-9.38 -20.59,-20.62 0,-16.84 0,-44.93 3.75,-88.01 -3.75,-9.35 -13.1,-13.12 -20.62,-13.12 -37.44,28.11 -144.18,76.79 -187.27,91.77 -9.35,5.63 -9.35,26.22 -1.87,33.72l16.87 11.23c50.57,33.4 50.57,42.78 50.57,115.79l0 327.42c0,134.84 -1.88,153.57 -71.16,162.92l-44.96 5.63c-13.11,9.37 -9.37,41.5 3.75,47.12 58.05,-3.72 114.22,-4.98 181.66,-4.98 65.53,0 119.85,1.26 170.4,4.98 13.13,-5.62 16.87,-37.75 3.76,-47.12l-33.71 -5.63c-67.42,-11.22 -71.17,-28.08 -71.17,-162.92l0 -289.96c0,-59.92 9.37,-84.28 28.08,-106.75 28.09,-33.39 80.55,-67.1 157.32,-67.1 116.12,0 172.29,67.1 172.29,192.59l0 271.22c0,134.84 -1.87,151.7 -71.17,162.92l-33.71 5.63c-13.1,9.37 -9.35,41.5 3.76,47.12 52.44,-3.72 102.99,-4.98 170.41,-4.98 65.55,0 119.85,1.26 176.05,4.98 13.1,-5.62 16.84,-37.75 3.72,-47.12l-39.3 -5.63c-67.44,-9.35 -71.17,-28.08 -71.17,-162.92l0 -286.21c0,-65.54 5.6,-84.28 28.08,-112.37 26.22,-33.39 84.28,-65.23 155.43,-65.23 117.98,0 174.16,65.23 174.16,192.59l0 271.22zm762.21 -553.69c-220.98,0 -398.9,168.55 -398.9,404.5 0,234.09 168.55,385.78 383.91,385.78 234.1,0 395.15,-168.56 395.15,-402.63 0,-230.35 -170.43,-387.65 -380.16,-387.65zm219.11 417.61c0,144.2 -50.58,316.49 -215.36,316.49 -164.8,0 -241.59,-183.54 -241.59,-353.95 0,-206.01 91.76,-323.97 215.37,-323.97 177.9,0 241.58,202.25 241.58,361.43zm410.11 136.08c0,134.84 -1.87,153.57 -71.16,162.92l-39.32 5.63c-13.11,9.37 -9.37,41.5 3.73,47.12 52.45,-3.72 108.63,-4.98 176.05,-4.98 65.55,0 119.85,1.26 170.43,4.98 13.11,-5.62 16.84,-37.75 3.74,-47.12l-33.71 -5.63c-67.42,-11.22 -71.17,-28.08 -71.17,-162.92l0 -286.21c0,-54.3 3.75,-80.54 28.08,-112.37 26.22,-35.27 88.04,-65.23 159.19,-65.23 127.34,0 176.04,78.35 176.04,185.07l0 278.74c0,134.84 -1.87,151.7 -71.17,162.92l-35.57 5.63c-13.11,9.37 -9.38,41.5 3.75,47.12 50.55,-3.72 106.72,-4.98 174.16,-4.98 65.53,0 119.85,1.26 176.03,4.98 13.11,-5.62 16.84,-37.75 3.75,-47.12l-41.21 -5.63c-67.4,-9.35 -71.17,-28.08 -71.17,-162.92l0 -321.8c0,-125.14 -63.67,-231.89 -219.1,-231.89 -95.51,0 -183.53,46.8 -262.19,95.51 -13.09,0 -20.59,-9.38 -20.59,-20.62 0,-16.84 0,-44.93 3.75,-88.01 -3.75,-9.35 -13.11,-13.12 -20.62,-13.12 -37.45,28.11 -144.18,76.79 -187.27,91.77 -9.33,5.63 -9.33,26.22 -1.87,33.72l16.87 11.23c50.55,33.4 50.55,42.78 50.55,115.79l0 327.42zm1593.7 -885.16c0,-82.42 3.75,-176.05 5.62,-232.23 -3.75,-7.5 -11.24,-11.23 -18.74,-11.23 -67.41,35.59 -155.43,63.66 -202.26,78.65 -9.35,5.62 -9.35,31.83 0,37.45l18.73 11.24c56.19,33.7 58.06,44.95 58.06,155.45l0 282.77c0,14.97 -1.87,26.22 -11.22,26.22 -20.62,-7.51 -61.82,-16.85 -125.5,-16.85 -254.68,0 -453.17,168.55 -453.17,430.71 0,196.66 138.56,359.57 346.45,359.57 89.88,0 153.56,-29.97 235.95,-86.15l7.49 0c3.75,7.5 3.75,29.97 3.75,58.06l0 31.84c0,9.36 9.36,14.96 20.61,14.96 52.41,-20.58 168.53,-48.68 247.19,-59.92 16.84,-9.35 14.97,-56.18 1.87,-59.92 -28.08,9.36 -59.91,18.74 -80.53,18.74 -52.43,0 -54.3,-69.3 -54.3,-217.25l0 -822.11zm-138.59 910.13c0,29.97 -1.87,58.06 -13.1,69.3 -29.98,29.95 -93.64,52.43 -144.2,52.43 -183.53,0 -279.03,-161.06 -279.03,-331.47 0,-162.94 88.01,-310.87 258.44,-310.87 73.04,0 129.21,39.33 157.3,78.65 13.1,18.73 20.59,35.57 20.59,73.04l0 368.92zm646.09 -578.66c-142.33,0 -254.69,76.77 -254.69,213.48 0,103 76.77,168.55 185.4,230.35 69.29,39.33 144.21,86.14 144.21,172.29 0,80.52 -58.06,119.85 -125.5,119.85 -106.72,0 -166.65,-89.88 -198.51,-192.89 -9.35,-11.24 -33.68,-9.37 -43.06,1.87 -3.74,61.81 7.48,153.56 22.47,189.15 46.83,37.45 112.38,56.18 200.39,56.18 138.59,0 269.67,-71.15 269.67,-213.49 0,-132.96 -91.75,-196.64 -191.03,-252.83 -65.52,-37.45 -144.19,-78.65 -144.19,-155.41 0,-67.45 46.83,-114.26 119.85,-114.26 76.78,0 132.97,54.33 164.8,136.72 9.37,11.25 37.46,7.48 44.95,-5.62 0,-50.58 -13.09,-110.5 -29.96,-151.68 -16.86,-14.99 -86.15,-33.71 -164.8,-33.71z"/>
    <g>
     <path class="fil1" d="M2556.46 16271.86l24587.08 0 0 215.58 -24587.08 0 -106.71 -107.79 106.71 -107.79zm0 215.58l-106.71 0 0 -107.79 106.71 107.79zm106.71 -12983.73l0 12875.94 -213.42 0 0 -12875.94 106.71 -107.79 106.71 107.79zm-213.42 0l0 -107.79 106.71 0 -106.71 107.79zm24693.79 107.79l-24587.08 0 0 -215.58 24587.08 0 106.71 107.79 -106.71 107.79zm0 -215.58l106.71 0 0 107.79 -106.71 -107.79zm-106.71 12983.73l0 -12875.94 213.42 0 0 12875.94 -106.71 107.79 -106.71 -107.79zm213.42 0l0 107.79 -106.71 0 106.71 -107.79z"/>
     <polygon id="1" class="fil2" points="27143.54,16379.65 2556.46,16379.65 2556.46,3503.71 27143.54,3503.71 "/>
    </g>
    <g>
     <g>
      <path class="fil1" d="M24206.46 6724.26l-18653.97 0 0 -16.44 18653.97 0 6 8.22 -6 8.22zm0 -16.44c3.31,0 6,3.69 6,8.22 0,4.53 -2.69,8.22 -6,8.22l0 -16.44zm6 -129.03l0 137.25 -12 0 0 -137.25 6 -8.22 6 8.22zm-12 0c0,-4.53 2.69,-8.22 6,-8.22 3.31,0 6,3.69 6,8.22l-12 0zm-18647.97 -8.22l18653.97 0 0 16.44 -18653.97 0 -6 -8.22 6 -8.22zm0 16.44c-3.31,0 -6,-3.69 -6,-8.22 0,-4.53 2.69,-8.22 6,-8.22l0 16.44zm-6 129.03l0 -137.25 12 0 0 137.25 -6 8.22 -6 -8.22zm12 0c0,4.53 -2.69,8.22 -6,8.22 -3.31,0 -6,-3.69 -6,-8.22l12 0z"/>
     </g>
     <polygon class="fil3" points="5552.5,6716.05 24206.51,6716.05 24206.51,6578.8 5552.5,6578.8 "/>
     <g>
      <path class="fil1" d="M24147.47 13312.9l-18654.21 0 0 -16.44 18654.21 0 6 8.22 -6 8.22zm0 -16.44c3.31,0 6,3.69 6,8.22 0,4.53 -2.69,8.22 -6,8.22l0 -16.44zm6 -129.02l0 137.24 -12 0 0 -137.24 6 -8.22 6 8.22zm-12 0c0,-4.53 2.69,-8.22 6,-8.22 3.31,0 6,3.69 6,8.22l-12 0zm-18648.21 -8.22l18654.21 0 0 16.44 -18654.21 0 -6 -8.22 6 -8.22zm0 16.44c-3.31,0 -6,-3.69 -6,-8.22 0,-4.53 2.69,-8.22 6,-8.22l0 16.44zm-6 129.02l0 -137.24 12 0 0 137.24 -6 8.22 -6 -8.22zm12 0c0,4.53 -2.69,8.22 -6,8.22 -3.31,0 -6,-3.69 -6,-8.22l12 0z"/>
     </g>
     <polygon class="fil3" points="5493.27,13304.69 24147.5,13304.69 24147.5,13167.46 5493.27,13167.46 "/>
     <path class="fil3" d="M5496.4 9542.4m0 -1812.97l0 -111.24 351.77 21.04 156.35 0 57.12 0c60.14,0 153.34,-3 279.62,-12.02 72.15,-3 117.26,-6.02 135.3,-6.02 123.26,0 216.47,6.02 279.61,21.06 96.2,18.02 171.37,51.11 228.49,93.19 54.13,42.1 102.24,105.23 144.32,183.41 39.1,81.17 60.14,156.33 60.14,225.48 0,168.37 -54.13,306.68 -162.36,414.93 -105.24,105.21 -240.52,159.34 -405.9,159.34 -57.12,0 -111.23,-6.01 -162.34,-21.04 -51.12,-12.03 -99.22,-33.09 -144.32,-60.14 -6.01,-30.07 -9.02,-69.15 -9.02,-117.26 24.05,3.01 45.09,3.01 66.15,3.01 18.04,3 36.07,3 51.11,3 84.18,0 153.33,-24.05 210.45,-69.15 75.17,-60.12 114.26,-159.34 114.26,-294.65 0,-96.2 -15.04,-174.37 -48.11,-237.5 -33.07,-60.14 -75.16,-102.24 -120.26,-123.28 -63.14,-30.07 -132.29,-45.09 -213.47,-45.09 -72.16,0 -126.27,12.02 -156.34,33.06 -6.01,12.03 -12.03,24.06 -15.03,36.09l9.02 691.51 -3.02 60.12 3.02 63.14c0,12.03 0,33.08 0,60.14l0 120.26 3 192.43 0 228.49c0,33.07 3.01,75.17 6.01,132.29l294.65 36.08c3.01,24.06 6.01,42.1 6.01,57.13 0,12.02 -3,33.06 -6.01,60.13 -27.06,3 -45.1,6.02 -57.13,6.02 -30.07,0 -87.19,-3.02 -171.37,-12.03 -84.18,-6.01 -180.4,-9.03 -288.63,-9.03 -120.26,0 -234.51,6.02 -345.76,24.06 -18.04,0 -48.11,3.01 -87.19,6.01 -3,-30.07 -6.01,-51.11 -6.01,-63.14 0,-9.01 0,-24.05 3.01,-42.09l90.19 -30.07c60.14,-18.03 114.25,-39.09 159.35,-66.14 9.02,-27.05 12.02,-54.12 12.02,-78.18 0,-9.01 0,-21.04 0,-33.07 -3,-30.07 -3,-72.15 -3,-129.27l-3.01 -411.91 -18.04 -463.02c-6.02,-222.48 -12.03,-342.74 -15.03,-360.78 -6.01,-27.06 -18.04,-48.11 -36.08,-66.15 -15.03,-15.03 -42.08,-27.06 -81.18,-33.07 -81.18,-15.03 -135.29,-27.06 -162.36,-36.08z"/>
     <path class="fil3" d="M7013.71 9542.4m204.45 -396.87c60.13,0 114.25,18.05 156.35,57.13 42.08,39.08 63.14,84.18 63.14,135.29 0,63.15 -12.03,114.26 -39.1,144.31 -48.1,57.14 -105.22,84.2 -171.37,84.2 -63.14,0 -114.25,-21.06 -153.33,-60.14 -39.08,-39.08 -60.14,-90.19 -60.14,-153.33 0,-39.08 9.03,-75.17 30.07,-108.24 15.03,-24.05 42.1,-51.12 87.19,-81.17 18.04,-12.03 48.11,-18.05 87.19,-18.05zm1154.52 396.87m6.01 -1794.93l-6.01 -102.22 126.29 0 42.08 -3c60.14,-3.02 99.22,-3.02 123.28,-3.02 9.01,0 45.09,0 102.22,3.02 12.02,0 24.05,0 33.07,0 9.02,0 39.09,0 90.2,-3.02 54.11,0 84.18,-3 90.19,-3 12.03,0 27.06,3 48.12,3 150.33,138.31 273.59,255.57 366.79,354.79 96.21,99.2 441.98,444.96 1040.29,1040.27l0 -39.09 -6.02 -168.37c-3.01,-102.22 -6.01,-180.4 -12.03,-240.52 -3.01,-57.12 -6.01,-126.27 -9.02,-207.45 0,-81.18 -3,-153.35 -9.02,-219.48 -12.02,-129.29 -18.04,-204.46 -18.04,-222.5 0,-63.14 -9.01,-102.22 -21.04,-117.25 -21.06,-21.05 -66.15,-36.08 -141.32,-48.11 -54.1,-9.01 -93.2,-21.04 -120.26,-33.07l3.02 -87.19 36.06 -6.01 288.64 -6.02 318.7 -12.02c21.04,0 42.1,0 63.14,0l0 96.2c-21.04,12.03 -45.1,21.06 -69.15,27.07 -60.13,15.03 -96.21,24.06 -105.24,30.07 -48.09,27.06 -75.16,45.1 -81.18,51.11 -6.01,12.03 -12.03,30.05 -12.03,54.11 0,6.01 0,27.07 3.02,63.14 0,18.04 3,57.12 3,123.27 0,141.3 3.01,255.57 12.03,336.75 0,27.05 3.01,57.12 3.01,90.19l18.04 517.12c0,36.09 0,60.14 0,75.17l0 180.4 6.02 78.16 -6.02 78.18c3,39.09 6.02,63.14 6.02,72.15l0 78.18 -168.38 6.02 -174.38 -180.4 -357.78 -354.77 -249.56 -249.55 -183.39 -189.41c-120.27,-117.27 -228.5,-219.49 -324.7,-309.69l-240.54 -216.47 15.04 544.2c0,33.07 0,69.15 0,102.22l0 105.23 9.01 192.41c3.02,81.18 6.02,165.36 15.03,261.58 3.01,24.06 6.01,42.08 9.03,51.11 3,12.03 6.01,27.05 15.03,45.1 39.09,15.04 123.27,24.05 249.55,33.06 9.01,0 24.05,3.02 39.08,9.03l6.01 123.26 -57.12 3.02c-33.07,0 -129.28,-9.03 -297.65,-24.06 -156.34,3.02 -261.58,6.02 -312.69,9.03 -51.11,3 -81.17,6 -84.17,6 -12.03,0 -30.07,-3 -48.11,-6 -3.02,-24.05 -3.02,-42.1 -3.02,-60.14 0,-12.02 0,-30.07 0,-54.12 27.07,-6.02 51.13,-9.01 69.15,-9.01 6.02,0 24.06,2.99 57.14,2.99 81.16,0 129.28,-6.01 147.32,-18.02 15.02,-12.03 21.04,-45.11 24.05,-99.22 6.02,-153.35 9.02,-249.55 9.02,-282.62l0 -81.18 3.01 -478.04 -3.01 -297.67c-3,-114.24 -9.02,-192.41 -24.06,-237.5 -6.01,-21.06 -15.03,-42.1 -33.07,-57.14 -33.07,-36.07 -72.15,-63.14 -114.25,-78.17 -24.05,-12.02 -90.19,-27.05 -198.44,-42.09z"/>
     <path class="fil3" d="M11055.53 9542.4m204.45 -396.87c60.12,0 114.25,18.05 156.35,57.13 42.08,39.08 63.13,84.18 63.13,135.29 0,63.15 -12.03,114.26 -39.1,144.31 -48.09,57.14 -105.21,84.2 -171.37,84.2 -63.13,0 -114.24,-21.06 -153.33,-60.14 -39.08,-39.08 -60.13,-90.19 -60.13,-153.33 0,-39.08 9.02,-75.17 30.07,-108.24 15.02,-24.05 42.09,-51.12 87.19,-81.17 18.04,-12.03 48.11,-18.05 87.19,-18.05zm1283.81 396.87m1761.85 -1788.92c6.01,30.07 15.04,87.19 24.05,171.39 9.03,84.18 12.03,144.3 12.03,183.4 0,15.02 -3,33.06 -9.01,54.1 -42.1,0 -78.18,-6.01 -108.24,-12.02 -75.16,-114.25 -126.29,-186.4 -156.34,-216.47 -57.12,-57.12 -129.29,-102.22 -219.48,-141.32 -66.15,-27.05 -141.32,-42.08 -225.5,-42.08 -165.35,0 -309.67,72.15 -432.95,219.48 -123.27,147.32 -186.41,366.8 -186.41,655.43 0,135.31 24.06,267.59 72.17,396.87 48.09,129.29 120.26,228.51 219.48,303.67 96.2,72.15 210.45,108.24 339.74,108.24 63.14,0 132.29,-9.03 204.44,-24.06 36.08,-9.01 63.14,-24.05 87.19,-48.11 15.04,-15.03 27.06,-39.08 30.07,-69.15 9.01,-57.12 12.03,-138.3 12.03,-240.52 0,-102.22 0,-171.37 -3.02,-210.47 -9.01,-15.03 -15.02,-24.04 -21.04,-27.06 -6.01,-6.01 -27.05,-12.02 -60.14,-21.04l-129.27 -36.08c-30.07,-6.01 -48.11,-15.03 -54.12,-24.05 -3,-15.03 -3,-24.06 -3,-30.07 0,-12.02 3,-33.07 12.03,-57.13 15.02,-6.01 27.05,-9.01 36.06,-9.01 105.24,0 198.44,3 276.61,9.01 27.07,3.02 57.14,3.02 90.21,3.02l231.5 -3.02 99.21 -3c12.03,0 45.11,0 99.22,3 0,27.07 0,48.11 0,66.16 0,9.01 -3,21.04 -9.01,36.08 -18.04,9.01 -45.1,24.04 -87.2,39.08 -39.08,15.03 -60.13,24.06 -66.15,30.07 -9.01,6.01 -12.01,18.04 -15.02,36.07 -3,18.04 -6.02,75.16 -6.02,174.38 0,114.25 0,183.4 0,204.46 -3,75.16 -6.01,114.24 -6.01,123.26 0,36.08 -6.02,60.14 -15.03,69.15 -27.07,27.07 -111.25,57.12 -255.56,93.21 -141.31,33.06 -306.68,51.1 -496.09,51.1 -132.29,0 -246.54,-9.01 -342.74,-33.06 -99.22,-21.04 -180.4,-51.11 -249.55,-93.21 -93.21,-54.11 -171.37,-120.26 -237.53,-198.43 -63.13,-78.18 -114.24,-162.35 -144.31,-255.56 -45.1,-129.29 -69.15,-255.56 -69.15,-384.84 0,-144.31 33.06,-288.63 99.22,-438.96 51.11,-105.24 117.24,-201.44 207.45,-288.63 87.19,-84.2 198.43,-153.35 330.71,-204.46 135.31,-51.11 279.62,-75.16 435.97,-75.16 18.04,0 51.11,3.01 96.2,6.01 117.27,0 228.51,15.04 333.73,45.1 102.24,30.07 189.42,66.15 258.57,105.23zm252.56 1788.92m0 -9.01l3 -102.24c18.04,-6.01 51.11,-12.03 99.22,-21.04 75.17,-15.02 120.26,-27.05 135.31,-39.08 18.02,-12.03 36.06,-39.1 60.12,-84.19l294.64 -775.69 348.78 -914.01c33.06,0 63.13,0 93.19,0l66.15 0 15.03 27.07 252.56 604.32c60.12,129.27 111.23,252.55 156.33,372.81 45.11,120.26 84.19,219.48 117.26,297.66 21.04,45.09 48.11,114.25 81.18,207.45 18.04,48.1 45.1,111.23 81.18,186.4 18.04,42.1 33.07,66.15 45.1,72.17 18.04,15.02 45.09,24.05 84.19,30.07 42.08,2.99 84.18,15.02 132.29,33.06 3,33.07 6.01,57.13 6.01,72.15 0,6.02 0,18.05 0,33.09 -75.16,0 -153.34,-3.02 -240.54,-12.03 -87.19,-6.01 -165.35,-9.03 -234.5,-9.03 -78.18,0 -135.31,0 -168.38,3.02l-249.55 12.02 -72.15 3c0,-33.07 3,-66.13 6.02,-99.22l162.35 -33.07c48.1,-15.02 78.17,-24.05 84.18,-30.07 9.03,-9.01 15.03,-21.04 15.03,-33.06 0,-15.03 -3,-27.06 -6,-39.09l-60.14 -144.31 -114.24 -288.63 -562.24 0c-21.04,45.09 -63.14,162.35 -129.28,342.74 -18.04,51.12 -27.07,87.19 -27.07,105.23 0,27.06 6.02,45.1 21.06,54.13 21.04,18.04 66.14,33.06 129.27,39.08 9.03,3 42.1,9.01 105.24,18.04 0,33.07 0,57.12 0,72.15 0,9.03 0,21.06 -3,33.08 -60.14,0 -204.46,-9.02 -432.95,-24.05l-60.14 12.03c-72.15,12.02 -141.3,18.04 -207.45,18.04l-27.06 0zm691.52 -826.82c228.49,3 363.79,6.02 402.88,6.02l36.08 -3.02c-27.07,-87.18 -66.15,-186.4 -114.25,-303.66 -45.11,-117.26 -84.19,-204.44 -114.26,-264.58l-210.45 565.24zm1392.03 835.83m0 -129.29c15.05,-6.01 45.12,-12.01 93.21,-18.02 90.21,-15.05 150.33,-36.09 180.4,-63.16 18.04,-18.02 27.05,-48.09 33.07,-96.2 0,-12.03 3.01,-162.36 9.03,-447.98l-3.02 -162.36 3.02 -195.42 -3.02 -502.1 0 -57.13c0,-27.05 -6.01,-45.09 -21.04,-60.14 -6.01,-6.01 -27.05,-9.01 -57.12,-9.01 -27.06,0 -54.13,3 -90.21,9.01 -42.08,0 -81.16,6.02 -117.25,12.03 -6.01,0 -15.04,0 -27.07,3.02l0 -129.29c57.14,-18.04 141.32,-36.09 249.55,-54.11 177.39,-27.07 396.87,-42.1 655.45,-42.1 219.47,0 378.82,12.03 478.05,36.08 153.32,39.09 276.6,96.21 372.81,171.38 129.29,99.22 225.49,216.46 288.63,348.75 63.14,132.29 96.2,276.61 96.2,432.95 0,198.44 -42.08,369.81 -129.27,511.13 -87.19,141.3 -210.47,252.55 -372.83,339.74 -111.23,60.12 -267.57,90.19 -460,90.19l-303.66 -12.02 -87.19 -3 -120.26 3 -33.09 -3 -123.26 3 -165.35 -3c-6.02,0 -54.13,3 -147.34,9.01 -33.06,3.01 -75.16,3.01 -123.27,6.01 -33.07,0 -57.12,0 -72.15,0 -3.02,-21.04 -3.02,-60.12 -3.02,-117.26zm712.57 -1638.57c0,30.05 0,54.11 0,66.13l0 249.55 3 216.47c0,72.17 0,132.29 0,186.41l-3 138.31 6.02 234.5 -6.02 144.32c0,132.29 24.06,225.5 75.17,273.61 72.15,69.15 171.37,102.22 300.66,102.22 96.2,0 168.37,-9.02 213.47,-27.06 96.2,-39.08 171.37,-87.19 228.49,-150.33 54.13,-60.14 99.22,-147.33 126.28,-261.58 30.06,-111.23 45.09,-228.49 45.09,-348.75 0,-198.44 -30.05,-360.8 -93.19,-487.08 -63.15,-123.26 -150.33,-219.48 -261.58,-282.61 -108.23,-63.14 -234.51,-93.21 -375.82,-93.21 -99.22,0 -186.42,12.03 -258.57,39.1zm1701.73 1767.86m1761.85 -1788.92c6.01,30.07 15.04,87.19 24.06,171.39 9.02,84.18 12.02,144.3 12.02,183.4 0,15.02 -3,33.06 -9.01,54.1 -42.1,0 -78.18,-6.01 -108.23,-12.02 -75.17,-114.25 -126.29,-186.4 -156.35,-216.47 -57.12,-57.12 -129.29,-102.22 -219.48,-141.32 -66.15,-27.05 -141.32,-42.08 -225.49,-42.08 -165.36,0 -309.68,72.15 -432.95,219.48 -123.28,147.32 -186.42,366.8 -186.42,655.43 0,135.31 24.06,267.59 72.17,396.87 48.1,129.29 120.26,228.51 219.48,303.67 96.21,72.15 210.45,108.24 339.74,108.24 63.14,0 132.29,-9.03 204.44,-24.06 36.09,-9.01 63.14,-24.05 87.2,-48.11 15.04,-15.03 27.05,-39.08 30.07,-69.15 9.01,-57.12 12.02,-138.3 12.02,-240.52 0,-102.22 0,-171.37 -3.01,-210.47 -9.01,-15.03 -15.03,-24.04 -21.04,-27.06 -6.02,-6.01 -27.06,-12.02 -60.14,-21.04l-129.27 -36.08c-30.07,-6.01 -48.12,-15.03 -54.13,-24.05 -3,-15.03 -3,-24.06 -3,-30.07 0,-12.02 3,-33.07 12.03,-57.13 15.03,-6.01 27.05,-9.01 36.07,-9.01 105.23,0 198.44,3 276.6,9.01 27.07,3.02 57.14,3.02 90.21,3.02l231.51 -3.02 99.2 -3c12.03,0 45.12,0 99.22,3 0,27.07 0,48.11 0,66.16 0,9.01 -3,21.04 -9.01,36.08 -18.04,9.01 -45.09,24.04 -87.19,39.08 -39.08,15.03 -60.14,24.06 -66.15,30.07 -9.02,6.01 -12.02,18.04 -15.03,36.07 -3,18.04 -6.01,75.16 -6.01,174.38 0,114.25 0,183.4 0,204.46 -3,75.16 -6.02,114.24 -6.02,123.26 0,36.08 -6.01,60.14 -15.03,69.15 -27.07,27.07 -111.24,57.12 -255.56,93.21 -141.3,33.06 -306.67,51.1 -496.09,51.1 -132.29,0 -246.53,-9.01 -342.74,-33.06 -99.22,-21.04 -180.4,-51.11 -249.55,-93.21 -93.21,-54.11 -171.37,-120.26 -237.52,-198.43 -63.14,-78.18 -114.25,-162.35 -144.32,-255.56 -45.09,-129.29 -69.15,-255.56 -69.15,-384.84 0,-144.31 33.07,-288.63 99.22,-438.96 51.11,-105.24 117.25,-201.44 207.45,-288.63 87.2,-84.2 198.43,-153.35 330.72,-204.46 135.3,-51.11 279.62,-75.16 435.96,-75.16 18.04,0 51.11,3.01 96.21,6.01 117.26,0 228.51,15.04 333.73,45.1 102.23,30.07 189.41,66.15 258.56,105.23zm411.91 1788.92m0 -9.01l0 -105.24c21.04,-6.01 51.11,-15.04 99.22,-24.05 63.14,-18.04 111.25,-33.07 141.3,-51.11 18.04,-30.07 27.07,-72.17 27.07,-126.28l0 -171.38 3 -336.73 -3 -78.18c6.02,-195.43 9.01,-294.63 9.01,-300.65l0 -195.44 3.02 -78.16 -6.01 -168.37 -3.02 -63.14c0,-9.01 -3,-24.06 -9.01,-45.1 -42.1,-21.04 -108.24,-30.07 -198.44,-36.08 -21.04,0 -39.09,-3 -51.11,-3l-3 -129.29 420.92 18.04c51.11,3.02 81.18,3.02 96.21,3.02 57.12,0 150.33,-3.02 276.6,-12.03 72.15,-6.01 117.26,-9.03 135.29,-9.03 0,18.04 0,33.07 0,48.11 0,15.03 0,36.09 -3,63.14 -39.08,15.03 -84.18,27.05 -135.3,39.08 -48.1,12.03 -90.2,24.06 -123.26,36.09 -6.02,24.05 -9.03,63.13 -9.03,111.24 0,42.08 3.01,75.17 6.01,102.22 -3,165.36 -6.01,291.63 -6.01,381.84l3.01 387.84 -3.01 195.43 0 294.64 0 54.13c0,9.01 3.01,21.04 6.01,36.08 60.14,12.03 114.26,21.04 162.36,24.06 9.03,2.99 39.08,6.01 90.21,12.01 3,30.07 6.01,54.12 6.01,75.16 0,9.03 0,27.07 0,48.11 -15.04,0 -24.05,3.02 -30.07,3.02 -33.08,3 -51.11,3 -54.12,3 -9.02,0 -21.04,-3 -39.09,-6.02 -15.04,0 -78.18,-6.01 -195.42,-18.04l-261.58 -3c-51.11,0 -126.28,3 -225.5,15.03 -63.13,6.01 -105.23,9.03 -126.27,9.03zm1127.48 9.01m12.02 -129.29c30.07,-9.01 72.15,-18.02 126.28,-27.05 57.12,-9.02 90.19,-12.03 99.22,-12.03 36.08,0 63.14,-6.02 75.16,-18.04 6.02,-24.06 9.02,-42.08 9.02,-57.13l-3 -189.41 9.01 -192.43 0 -120.26 3.02 -144.31 -3.02 -153.33 6.02 -327.72 0 -147.33 0 -21.04c-6.02,-105.23 -12.03,-159.34 -21.05,-171.37 -6.01,-9.03 -33.06,-24.05 -84.19,-39.1 -3,0 -21.04,-9.01 -54.11,-21.04 -24.05,-9.01 -48.11,-18.04 -66.15,-21.04 -33.07,-9.03 -57.12,-18.04 -72.15,-30.07 -3.02,-27.05 -3.02,-45.09 -3.02,-60.14 0,-6.01 0,-18.02 3.02,-36.06 6.01,-3.02 18.04,-6.02 27.05,-6.02 24.06,0 108.24,3 255.57,12.03l210.45 0 153.35 3c69.15,0 156.34,-3 261.56,-12.03 30.07,-3 48.11,-3 54.12,-3 15.03,0 24.06,3 30.07,12.03 9.02,9.01 12.03,27.05 12.03,57.12 0,21.04 -6.01,36.07 -15.04,48.1 -6.02,6.01 -27.06,12.03 -66.14,18.04l-183.4 42.1c-3.01,3 -12.02,6.01 -24.05,12.03 -3.02,6.01 -6.02,12.02 -9.03,18.04l0 42.08 -6.01 93.2 0 24.06 0 18.04c0,3 0,30.07 -3,81.18 0,12.03 0,24.06 0,36.08 0,18.04 0,42.08 0,81.18 3,57.13 3,108.24 3,153.33 0,51.11 0,108.23 -3,174.39 -3.02,24.05 -3.02,57.12 -3.02,96.2l-6.01 697.53c0,30.07 6.01,48.11 18.04,57.12l141.32 6.02 87.19 -3 90.19 3c159.34,0 282.62,-18.05 372.81,-54.13 66.15,-27.05 111.25,-54.11 129.29,-84.18 33.07,-27.05 60.14,-60.12 81.18,-93.2 21.04,-36.07 45.1,-93.21 72.15,-171.37l48.11 0c24.06,0 48.11,3 78.17,6.01l0 42.1c0,69.15 -9.02,192.41 -27.06,369.81 -6.01,69.15 -12.03,111.23 -21.04,126.27 -21.06,6.02 -36.08,6.02 -42.1,6.02l-54.12 0 -75.15 3c-9.03,0 -66.15,-3 -174.39,-12.03 -21.05,0 -114.24,-3 -282.61,-9.01 -168.38,-6.02 -330.73,-9.03 -493.09,-9.03l-297.65 9.03c-114.24,3 -222.48,6.01 -321.7,15.02l-21.06 0c-6.01,0 -18.04,0 -30.05,-3 -3.01,-9.02 -3.01,-18.04 -3.01,-27.07 0,-39.08 3.01,-69.15 12.02,-87.19z"/>
     <path class="fil3" d="M13293.89 11869.55m870.21 -1488.69c9.58,26.37 16.78,67.13 21.56,119.86 9.59,81.52 14.39,143.84 14.39,186.99 0,14.39 -2.41,31.17 -4.8,45.54l-11.98 4.81 -83.91 -7.2 -14.39 -2.39c-33.56,-103.08 -69.51,-172.6 -103.08,-208.57 -59.93,-62.33 -129.45,-93.48 -210.94,-93.48 -76.72,0 -136.65,19.17 -182.21,59.93 -45.54,40.74 -67.11,91.09 -67.11,148.62 0,50.35 21.57,98.28 67.11,143.84 43.15,47.94 136.65,91.09 280.49,131.84 47.95,14.39 105.47,35.96 172.59,67.13 67.13,31.17 117.47,64.72 153.43,100.69 45.56,50.34 79.1,95.88 95.89,141.43 16.78,45.54 26.36,100.68 26.36,167.81 0,74.3 -14.37,146.23 -40.74,218.14 -14.38,35.96 -38.36,71.93 -71.92,105.49 -23.96,23.96 -59.93,50.33 -107.87,81.5 -50.34,33.56 -100.69,55.13 -153.42,69.52 -52.74,14.39 -122.26,21.58 -203.77,21.58 -55.13,0 -119.87,-7.19 -196.58,-23.98l-141.43 -40.75c-38.36,-9.59 -62.34,-21.57 -74.32,-28.76 -2.39,-2.41 -7.19,-9.59 -9.58,-21.59l0 -14.37c0,-7.19 -2.4,-62.34 -4.81,-160.62 -2.39,-50.34 -2.39,-86.3 -2.39,-107.88l0 -43.15 107.88 -2.39c38.35,86.3 62.33,139.03 71.91,158.21 23.98,38.36 52.74,71.92 81.5,95.9 28.78,26.37 64.74,45.54 105.49,59.93 38.35,14.37 83.91,21.57 131.84,21.57 40.76,0 88.71,-9.59 139.04,-26.37 50.35,-19.17 91.1,-47.95 122.27,-88.69 31.16,-40.76 45.54,-86.3 45.54,-131.86 0,-57.52 -26.36,-112.67 -79.1,-160.6 -33.56,-31.17 -122.27,-71.93 -266.09,-122.27 -143.84,-50.35 -242.14,-95.89 -297.27,-136.65 -55.13,-38.35 -100.68,-93.49 -131.84,-160.6 -31.17,-64.73 -47.95,-129.47 -47.95,-191.79 0,-124.65 45.54,-230.14 134.25,-316.44 88.69,-86.3 220.54,-129.45 393.15,-129.45 38.35,0 93.48,7.2 167.8,19.18 43.15,9.58 103.08,23.97 175.01,50.34zm338 1488.69m0 -783.89c0,-98.29 19.19,-194.18 57.54,-292.48 26.37,-69.51 64.73,-134.23 112.67,-191.77 50.34,-59.93 110.27,-112.67 184.59,-158.21 74.3,-45.56 151.02,-76.71 227.73,-98.29 76.71,-19.18 163.01,-28.77 258.91,-28.77 160.61,0 302.05,31.16 421.91,91.09 119.87,59.93 213.36,143.84 280.49,246.92 91.08,134.25 134.23,278.09 134.23,424.32 0,222.94 -74.3,409.93 -225.34,568.14 -148.62,158.21 -357.19,237.33 -625.67,237.33 -67.13,0 -129.45,-4.8 -186.99,-12 -43.15,-7.19 -81.5,-16.78 -112.67,-26.36 -59.93,-19.18 -93.49,-31.16 -100.69,-33.57 -83.91,-50.34 -153.42,-98.28 -203.77,-148.62 -52.73,-52.74 -95.88,-107.88 -131.84,-172.6 -19.17,-35.95 -40.76,-100.69 -67.12,-194.18 -14.39,-59.93 -23.98,-131.84 -23.98,-210.95zm795.89 -654.45c-67.13,0 -127.06,16.78 -179.8,47.95 -52.73,31.15 -93.49,64.71 -119.86,103.08 -43.15,64.71 -74.3,136.64 -93.49,213.35 -19.18,76.72 -28.77,170.21 -28.77,280.47 0,67.12 2.4,115.08 9.59,143.84 0,9.58 2.39,26.37 4.8,47.95 7.18,57.52 16.78,100.69 26.37,127.05 33.56,98.28 57.52,160.61 71.91,184.58 21.59,38.37 57.54,79.11 103.08,117.47 23.98,21.57 57.54,38.35 100.69,55.13 45.54,16.78 91.1,26.37 134.25,26.37 83.89,0 163.01,-19.17 234.93,-59.93 71.91,-38.35 129.44,-105.47 174.99,-201.36 43.15,-93.49 64.73,-215.75 64.73,-369.17 0,-62.33 -4.8,-146.23 -11.98,-254.12l-7.19 -21.56c-2.41,-4.81 -4.81,-21.59 -12,-47.96 -28.76,-127.05 -83.89,-225.33 -165.4,-292.46 -81.5,-67.12 -184.6,-100.68 -306.85,-100.68zm1004.45 1438.34m4.79 -1431.15l-4.79 -81.51 100.69 0 33.56 -2.4c47.94,-2.39 79.11,-2.39 98.28,-2.39 7.2,0 35.96,0 81.5,2.39 9.6,0 19.19,0 26.38,0 7.18,0 31.16,0 71.92,-2.39 43.14,0 67.12,-2.39 71.91,-2.39 9.58,0 21.58,2.39 38.36,2.39 119.86,110.28 218.14,203.77 292.46,282.87 76.71,79.11 352.39,354.79 829.45,829.45l0 -31.17 -4.8 -134.25c-2.39,-81.5 -4.79,-143.82 -9.59,-191.77 -2.39,-45.54 -4.78,-100.69 -7.19,-165.41 0,-64.73 -2.4,-122.27 -7.2,-175 -9.58,-103.08 -14.37,-163.02 -14.37,-177.39 0,-50.34 -7.19,-81.51 -16.78,-93.49 -16.78,-16.78 -52.74,-28.78 -112.67,-38.37 -43.15,-7.19 -74.32,-16.78 -95.9,-26.36l2.41 -69.52 28.76 -4.8 230.14 -4.79 254.11 -9.59c16.78,0 33.56,0 50.33,0l0 76.72c-16.77,9.58 -35.96,16.78 -55.13,21.56 -47.95,12 -76.72,19.18 -83.91,23.98 -38.35,21.58 -59.93,35.95 -64.72,40.76 -4.8,9.58 -9.58,23.97 -9.58,43.15 0,4.78 0,21.56 2.39,50.34 0,14.37 2.39,45.54 2.39,98.28 0,112.67 2.4,203.77 9.59,268.5 0,21.57 2.41,45.54 2.41,71.91l14.37 412.32c0,28.77 0,47.96 0,59.94l0 143.83 4.8 62.33 -4.8 62.32c2.39,31.17 4.8,50.34 4.8,57.54l0 62.32 -134.25 4.8 -139.03 -143.83 -285.27 -282.88 -198.99 -198.96 -146.23 -151.04c-95.88,-93.49 -182.18,-174.99 -258.89,-246.92l-191.78 -172.59 11.98 433.9c0,26.37 0,55.13 0,81.5l0 83.91 7.2 153.42c2.39,64.73 4.78,131.86 11.98,208.56 2.41,19.19 4.8,33.56 7.19,40.75 2.39,9.59 4.8,21.59 12,35.96 31.15,11.99 98.28,19.19 198.96,26.38 7.2,0 19.18,2.4 31.16,7.18l4.8 98.3 -45.54 2.39c-26.37,0 -103.08,-7.2 -237.33,-19.18 -124.67,2.4 -208.56,4.79 -249.32,7.2 -40.75,2.39 -64.73,4.78 -67.12,4.78 -9.59,0 -23.98,-2.39 -38.35,-4.78 -2.41,-19.19 -2.41,-33.56 -2.41,-47.95 0,-9.59 0,-23.98 0,-43.15 21.58,-4.79 40.76,-7.2 55.15,-7.2 4.78,0 19.17,2.41 45.54,2.41 64.73,0 103.08,-4.8 117.47,-14.39 11.98,-9.58 16.78,-35.95 19.17,-79.1 4.8,-122.27 7.2,-198.98 7.2,-225.35l0 -64.72 2.39 -381.17 -2.39 -237.31c-2.4,-91.11 -7.2,-153.43 -19.18,-189.4 -4.8,-16.77 -11.99,-33.55 -26.38,-45.54 -26.37,-28.76 -57.52,-50.35 -91.09,-62.33 -19.17,-9.58 -71.92,-21.58 -158.22,-33.56zm2131.15 1431.15m870.2 -1488.69c9.59,26.37 16.79,67.13 21.57,119.86 9.59,81.52 14.39,143.84 14.39,186.99 0,14.39 -2.41,31.17 -4.8,45.54l-11.98 4.81 -83.91 -7.2 -14.39 -2.39c-33.56,-103.08 -69.52,-172.6 -103.08,-208.57 -59.93,-62.33 -129.45,-93.48 -210.95,-93.48 -76.71,0 -136.64,19.17 -182.2,59.93 -45.54,40.74 -67.11,91.09 -67.11,148.62 0,50.35 21.57,98.28 67.11,143.84 43.15,47.94 136.65,91.09 280.48,131.84 47.96,14.39 105.48,35.96 172.6,67.13 67.13,31.17 117.47,64.72 153.43,100.69 45.56,50.34 79.1,95.88 95.88,141.43 16.79,45.54 26.37,100.68 26.37,167.81 0,74.3 -14.37,146.23 -40.74,218.14 -14.39,35.96 -38.36,71.93 -71.92,105.49 -23.96,23.96 -59.94,50.33 -107.87,81.5 -50.35,33.56 -100.69,55.13 -153.43,69.52 -52.73,14.39 -122.25,21.58 -203.76,21.58 -55.13,0 -119.87,-7.19 -196.58,-23.98l-141.43 -40.75c-38.36,-9.59 -62.34,-21.57 -74.32,-28.76 -2.39,-2.41 -7.19,-9.59 -9.59,-21.59l0 -14.37c0,-7.19 -2.39,-62.34 -4.8,-160.62 -2.39,-50.34 -2.39,-86.3 -2.39,-107.88l0 -43.15 107.88 -2.39c38.35,86.3 62.33,139.03 71.91,158.21 23.98,38.36 52.74,71.92 81.5,95.9 28.78,26.37 64.73,45.54 105.49,59.93 38.35,14.37 83.91,21.57 131.84,21.57 40.76,0 88.71,-9.59 139.04,-26.37 50.34,-19.17 91.1,-47.95 122.27,-88.69 31.15,-40.76 45.54,-86.3 45.54,-131.86 0,-57.52 -26.37,-112.67 -79.1,-160.6 -33.56,-31.17 -122.27,-71.93 -266.1,-122.27 -143.83,-50.35 -242.13,-95.89 -297.26,-136.65 -55.13,-38.35 -100.69,-93.49 -131.84,-160.6 -31.17,-64.73 -47.95,-129.47 -47.95,-191.79 0,-124.65 45.54,-230.14 134.25,-316.44 88.69,-86.3 220.53,-129.45 393.15,-129.45 38.35,0 93.48,7.2 167.8,19.18 43.15,9.58 103.08,23.97 175,50.34z"/>
     <path class="fil3" d="M15520.91 11401.49c-86.57,6.57 -279.27,8.94 -327.98,10.32 -49.34,1.38 -86.85,4.04 -114.08,7.64l-131.28 12 -2.2 9.91c0,3.76 2.93,21.82 5.84,29.11 35.22,9 60.14,21.33 73.86,37.07 14.35,15.44 21.47,34.44 21.47,55.99 0,31.59 -14.95,76.49 -46.18,135.21 -30.25,58.81 -78.17,123.95 -142.74,195.79 0,0 -1087.06,1396.06 -2949.56,-444.03 50.84,-67.65 97.83,-126.8 166.39,-205.43 76.43,-84.66 79.94,-89.99 116.69,-122.61 25.76,-33.3 116.05,-92.92 175.23,-112.7 2.93,-8.53 6.99,-40.85 6.99,-45.54l3.83 -45.54c-86.26,7.05 -155.98,9.27 -204.51,10.8 -48.3,1.48 -105.79,4.59 -132.37,8.48 -51.71,3.31 -100.06,10.21 -145.01,20.68l-2.45 36.96c0,3.75 -5.51,29.32 -2.36,36.96 30.66,8.58 82.51,41.06 87.9,79.79 0,31.19 -0.99,40.45 -31.55,98.82 -28.27,53.7 -54.38,81.53 -111.52,146.6 -113.53,-141.21 -195.14,-244.03 -336.7,-386.48l10.11 -4.76c40.52,-17.91 120.01,-77.46 173.69,-138.51 41.15,-46.77 53.96,-72.98 61.24,-132.76 30.94,-253.85 -240.06,-352.24 -451.87,-316.3 -89.52,15.19 -172.38,45.35 -222.74,94.98 -119.78,79.63 -144.98,267 -71.41,387.85 36.56,60.05 92.95,117.62 126.5,159.97 -45.08,8.23 -22.78,9.27 -61.15,27.96 -61.75,30.41 -97.54,49.55 -113.53,59.9 -45.95,31.4 -96.04,64.02 -123.43,93.46 -70.38,75.85 -130.71,183.56 -122.24,289.74 -2.41,61 12.87,125.54 46.4,184.26 114.25,182.87 265.44,192.73 460.31,192.73 78.83,0 180.69,-27.18 241.83,-48.8 61.37,-21.66 126.61,-56.05 178.37,-93.99 20.53,-15.34 41.11,-30.66 61.66,-46 15.17,13.19 30.42,26.3 45.62,39.48 866.22,737.83 1581.7,899.76 2120.72,837.31 722.57,-83.75 950.54,-397.22 1353.88,-860.75 76.33,-87.84 133.4,-146.31 171.02,-175.11 37.69,-28.72 83.06,-54.23 136.82,-76.64 2.79,-8.2 2.37,-26.64 2.37,-30.78l-1.88 -13.04zm-4303.7 -755.24c0,-37.95 14.11,-70.12 42.85,-97.42 28.4,-27.02 65.77,-40.53 111.71,-40.53 51.05,0 87.02,15.47 119.93,52.93 34.34,38.59 36.56,80.13 32.71,145.86 -0.62,77.7 -58.19,131.7 -124.98,162.44 -53.29,-51.83 -180.06,-144.83 -182.22,-223.28zm309.63 997.82c-59.66,28.67 -104.12,43.9 -177.74,43.9 -81.22,0 -196.52,-69.77 -247.22,-132.88 -26.86,-35.81 -50.12,-73.17 -66.45,-113.37 -12.62,-36.57 -19.24,-96.38 -19.24,-116.51 4.08,-47.31 22.86,-89.74 54.38,-128.04 37.17,-41.94 81.42,-71.05 130.71,-91.09 156.9,182.03 256.07,337.4 404.71,478.67 -21.52,21.26 -54.09,44.26 -79.15,59.32z"/>
     <path class="fil3" d="M13179.96 15095.45m290.33 -1062.33c1.65,0 21.45,0 54.44,-1.65l26.38 0 49.5 1.65c1.65,16.49 3.3,29.68 3.3,37.95 0,3.28 0,11.53 0,24.74 -1.65,8.24 -1.65,36.29 -1.65,85.77l-1.65 122.06 0 77.55 -4.94 542.69 0 46.2c0,16.49 3.28,28.04 11.53,34.63 6.6,8.27 28.04,13.21 59.39,18.16 13.19,1.64 39.59,6.6 77.53,13.19 1.65,4.94 1.65,9.9 1.65,14.85 0,6.6 0,19.8 -1.65,39.59l-34.64 0c-23.09,0 -57.74,-1.66 -102.28,-3.3 -28.04,-3.3 -46.18,-3.3 -56.09,-3.3 -13.19,0 -61.03,1.66 -143.5,4.94 -8.25,0 -16.49,0 -21.45,0l-14.84 0 -23.1 -1.64 -23.1 1.64 -39.59 -1.64c-4.94,0 -16.49,1.64 -32.99,3.3 -1.64,-11.55 -1.64,-21.45 -1.64,-28.04 0,-4.95 0,-14.85 1.64,-26.4 21.46,-6.59 46.2,-11.55 74.24,-18.14 39.6,-8.25 64.34,-16.49 72.58,-23.1 8.25,-8.25 13.2,-18.15 13.2,-31.34l0 -54.43 1.64 -59.39 0 -123.72 0 -31.35c0,-3.28 0,-19.78 1.66,-47.82 0,-14.85 0,-28.04 0,-39.59 0,-6.61 0,-28.05 -1.66,-64.34l3.3 -46.19c-1.64,-34.64 -3.3,-56.09 -3.3,-62.68 0,-8.25 0,-16.49 0,-23.1l1.66 -21.44 -1.66 -54.44 3.3 -24.74c0,-11.55 0,-26.4 0,-44.54 0,-18.15 0,-41.23 -1.64,-67.63 -37.95,28.04 -80.83,57.72 -130.33,85.77 -4.94,3.3 -29.68,13.21 -72.58,33 -16.49,-26.4 -28.04,-44.53 -32.99,-57.74 57.75,-29.69 95.68,-51.13 117.12,-65.98 33,-23.1 69.3,-52.78 108.87,-89.08 16.5,-14.85 37.95,-39.59 64.34,-70.93z"/>
     <path class="fil3" d="M14024.56 15095.45m202.91 -503.12c-62.69,-32.99 -107.23,-72.59 -136.91,-122.07 -29.7,-47.84 -44.54,-90.73 -44.54,-128.67 0,-31.34 4.95,-65.99 16.49,-103.92 9.89,-39.59 28.05,-72.58 52.79,-100.63 26.38,-29.68 59.37,-52.78 100.62,-72.58 39.6,-18.15 82.47,-28.04 128.67,-28.04 84.13,0 153.41,24.74 206.19,72.58 54.43,47.84 80.83,107.23 80.83,179.81 0,34.63 -11.55,70.92 -34.64,107.21 -23.09,37.95 -46.19,62.69 -69.28,75.88l-59.39 36.3c0,1.65 14.85,11.54 44.54,28.04 29.7,16.49 61.04,46.19 97.33,90.73 24.74,31.33 41.24,59.38 49.49,80.83 8.24,23.08 11.55,51.13 11.55,85.77 0,51.15 -4.95,89.08 -14.86,113.82 -4.94,14.85 -18.13,37.95 -36.29,65.99 -18.13,29.69 -34.63,49.49 -47.84,61.03 -28.04,21.44 -65.97,42.88 -115.46,61.04 -31.34,11.55 -67.63,18.15 -107.22,18.15 -46.2,0 -89.08,-4.96 -130.31,-14.85 -28.05,-6.61 -52.81,-18.15 -74.24,-32.99 -29.69,-23.1 -52.79,-42.89 -65.98,-61.05 -13.21,-18.14 -24.74,-39.57 -34.65,-65.97 -13.19,-34.65 -19.8,-70.94 -19.8,-105.57 0,-57.73 23.1,-110.53 69.28,-158.36 28.05,-29.7 72.58,-57.74 133.63,-82.48zm57.73 -191.36c16.5,11.55 57.73,36.3 125.37,72.59l16.49 -16.51c21.46,-21.44 36.29,-42.88 44.54,-62.67 11.55,-29.7 18.15,-65.99 18.15,-108.87 0,-56.09 -13.21,-98.98 -41.23,-130.33 -28.05,-29.69 -64.34,-44.54 -105.59,-44.54 -42.88,0 -79.17,13.21 -108.87,41.25 -28.04,29.69 -42.88,62.68 -42.88,103.91 0,28.05 8.25,52.81 23.08,75.89 13.21,23.1 37.95,46.19 70.94,69.28zm-1.64 229.29c-8.26,0 -26.4,16.51 -52.8,46.2 -34.63,41.23 -52.79,92.37 -52.79,153.4 0,64.34 16.5,115.48 51.15,151.77 32.98,37.93 74.22,56.09 122.06,56.09 49.5,0 89.07,-14.85 118.78,-42.9 28.04,-28.04 42.88,-67.63 42.88,-117.12 0,-39.59 -9.9,-74.24 -28.03,-102.26 -18.16,-28.05 -56.09,-59.39 -110.53,-94.04 -54.43,-32.99 -84.13,-51.14 -90.72,-51.14z"/>
     <path class="fil3" d="M14915.08 15095.45m247.43 -489.93c-16.5,-19.8 -29.69,-36.29 -39.6,-47.84 97.34,-70.92 163.32,-128.67 196.31,-174.85 21.44,-28.04 31.34,-59.39 31.34,-92.38 0,-34.65 -11.55,-64.33 -36.29,-89.07 -24.74,-24.74 -54.44,-37.95 -85.77,-37.95 -65.99,0 -125.38,39.59 -178.17,120.42l-51.12 -28.05c26.38,-56.07 51.12,-98.96 75.86,-127 24.76,-28.05 61.05,-51.15 107.23,-70.94 34.65,-16.5 77.53,-23.08 130.31,-23.08 69.3,0 123.73,18.13 161.68,52.78 39.57,34.63 57.72,79.17 57.72,131.95 0,42.9 -13.19,82.49 -39.59,120.42 -26.38,39.6 -72.58,80.83 -138.56,127.03l16.5 0c70.92,0 130.31,28.04 174.85,82.47 44.53,56.09 67.63,115.48 67.63,181.45 0,56.09 -13.19,113.84 -37.93,173.21 -26.4,61.05 -72.58,112.17 -140.22,153.42 -69.28,41.24 -151.76,61.03 -250.73,61.03 -97.34,0 -169.92,-16.49 -221.04,-51.14 -31.35,-21.44 -47.84,-46.18 -47.84,-74.22 0,-21.46 8.24,-37.95 23.08,-52.8 16.51,-16.5 36.29,-23.08 59.39,-23.08 21.45,0 39.59,4.94 56.08,16.49 18.16,9.89 41.24,34.63 70.94,70.92 14.84,19.8 29.69,31.35 42.88,37.95 24.76,9.89 42.9,14.85 54.45,14.85 28.04,0 57.72,-9.9 89.07,-29.7 31.35,-18.14 54.44,-51.14 72.58,-95.68 19.8,-44.54 28.04,-97.32 28.04,-156.69 0,-64.34 -16.49,-113.84 -47.84,-151.77 -31.34,-36.29 -65.97,-54.44 -103.92,-54.44 -28.04,0 -61.03,11.55 -97.32,36.29z"/>
     <path class="fil3" d="M15860 15095.45m669.72 -1.65l-82.47 0c-19.79,0 -36.29,0 -47.84,-1.66 -16.49,0 -28.04,0 -31.34,0l-54.45 1.66 -14.83 -1.66c-13.19,-1.64 -28.04,-1.64 -47.84,-1.64 -18.15,0 -47.84,0 -90.74,1.64 -19.79,1.66 -32.98,1.66 -36.29,1.66l-82.47 -1.66 -130.32 1.66 -51.13 0 0 -54.44c75.88,-97.32 133.61,-164.96 171.55,-202.89 39.59,-39.59 94.03,-102.29 164.96,-193 47.84,-61.04 82.48,-115.48 100.62,-163.32 18.15,-49.48 28.04,-90.72 28.04,-127.01 0,-39.59 -4.94,-75.88 -16.49,-107.23 -11.55,-31.34 -32.99,-56.08 -62.68,-74.22 -28.04,-19.8 -61.03,-28.04 -95.68,-28.04 -34.64,0 -65.97,8.24 -94.02,26.38 -28.04,16.5 -47.84,37.95 -61.04,64.34 -19.8,39.59 -31.33,79.18 -36.29,120.42l-59.38 0c-1.66,-23.1 -1.66,-42.9 -1.66,-57.73 0,-52.79 19.8,-102.29 61.04,-150.13 61.04,-75.86 150.12,-112.15 262.29,-112.15 95.67,0 169.91,26.38 224.33,80.82 54.45,52.79 80.83,120.42 80.83,201.25 0,32.99 -4.94,64.34 -14.83,92.38 -14.85,37.93 -33.01,72.58 -52.79,100.62 -21.45,28.05 -77.54,89.08 -171.56,183.1 -65.98,67.64 -150.11,146.8 -250.73,239.18l89.07 1.66 145.17 -3.3 85.77 1.64c44.54,0 74.24,-4.94 89.07,-14.83 14.85,-9.91 28.05,-32.99 39.6,-69.28 3.3,-8.27 8.24,-21.46 14.85,-37.95l54.42 -3.3 11.55 3.3c1.66,4.94 3.31,8.24 3.31,11.55 0,8.24 -1.65,19.79 -3.31,32.99 -3.3,13.19 -6.58,32.98 -9.89,62.69 -3.3,29.68 -11.55,89.07 -26.4,176.5z"/>
    </g>
    <path class="fil4" d="M26195.38 3143.68l0 -539.93 -201.62 0 0 -71.77 484.4 0 0 71.77 -201.62 0 0 539.93 -81.16 0zm364.63 0l0 -611.7 121.31 0 144.68 433.01c13.37,40.3 23.08,70.47 29.18,90.56 7,-22.21 17.97,-54.97 32.76,-98.11l147.23 -425.46 108.37 0 0 611.7 -77.74 0 0 -511.74 -178.57 511.74 -72.91 0 -176.57 -521.13 0 521.13 -77.74 0z"/>
   </g>
  </g>
 </g>
</svg>
